<?xml version="1.0" standalone="no"?>
<!DOCTYPE svg PUBLIC "-//W3C//DTD SVG 20010904//EN"
 "http://www.w3.org/TR/2001/REC-SVG-20010904/DTD/svg10.dtd">
<svg version="1.0" xmlns="http://www.w3.org/2000/svg"
 width="300.000000pt" height="300.000000pt" viewBox="0 0 300.000000 300.000000"
 preserveAspectRatio="xMidYMid meet">
<metadata>
Created by potrace 1.11, written by Peter Selinger 2001-2013
</metadata>
<g transform="translate(0.000000,300.000000) scale(0.100000,-0.100000)"
fill="#000000" stroke="none">
<path d="M2215 2964 c-619 -274 -1056 -592 -1179 -857 -48 -105 -66 -183 -71
-309 -3 -87 -12 -102 -55 -92 -101 24 -321 65 -349 66 -54 0 -63 -21 -56 -122
3 -47 8 -94 10 -105 3 -11 7 -36 9 -55 10 -70 35 -177 60 -251 88 -271 217
-373 462 -362 140 5 129 44 129 -458 l0 -419 72 0 72 0 -1 425 c-2 411 -1 426
18 452 21 28 45 37 122 48 244 32 527 129 678 233 103 70 185 159 242 262 30
54 80 191 88 240 2 14 6 34 9 45 26 122 27 696 1 776 -3 8 -7 47 -11 87 -3 40
-8 78 -10 85 -2 7 -6 30 -9 52 -16 130 -40 253 -52 273 -22 34 -82 29 -179
-14z"/>
</g>
</svg>
